<svg width="26" height="26" viewBox="0 0 26 26" fill="none" xmlns="http://www.w3.org/2000/svg">
<path fill-rule="evenodd" clip-rule="evenodd" d="M13.2217 0.25C13.6125 0.25 13.9292 0.56678 13.9292 0.957547V4.25943C13.9292 4.6502 13.6125 4.96698 13.2217 4.96698C12.8309 4.96698 12.5142 4.6502 12.5142 4.25943V0.957547C12.5142 0.56678 12.8309 0.25 13.2217 0.25ZM3.95553 3.86713C4.23632 3.59536 4.68425 3.60268 4.95602 3.88347L7.12634 6.12585C7.3981 6.40664 7.39079 6.85457 7.11 7.12634C6.82921 7.3981 6.38128 7.39079 6.10951 7.11L3.93919 4.86762C3.66743 4.58683 3.67474 4.1389 3.95553 3.86713ZM21.6328 3.9555C21.9046 4.23629 21.8973 4.68422 21.6165 4.95599L19.3742 7.12633C19.0934 7.3981 18.6454 7.39079 18.3737 7.11001C18.1019 6.82922 18.1092 6.38129 18.39 6.10952L20.6323 3.93918C20.9131 3.66741 21.361 3.67472 21.6328 3.9555ZM12.75 7.32547C9.75412 7.32547 7.32547 9.75412 7.32547 12.75C7.32547 15.7459 9.75412 18.1745 12.75 18.1745C15.7459 18.1745 18.1745 15.7459 18.1745 12.75C18.1745 9.75412 15.7459 7.32547 12.75 7.32547ZM5.91038 12.75C5.91038 8.97258 8.97258 5.91038 12.75 5.91038C16.5274 5.91038 19.5896 8.97258 19.5896 12.75C19.5896 16.5274 16.5274 19.5896 12.75 19.5896C8.97258 19.5896 5.91038 16.5274 5.91038 12.75ZM0.25 13.2217C0.25 12.8309 0.56678 12.5142 0.957547 12.5142H4.25943C4.6502 12.5142 4.96698 12.8309 4.96698 13.2217C4.96698 13.6125 4.6502 13.9292 4.25943 13.9292H0.957547C0.56678 13.9292 0.25 13.6125 0.25 13.2217ZM20.533 13.2217C20.533 12.8309 20.8498 12.5142 21.2406 12.5142H24.5425C24.9332 12.5142 25.25 12.8309 25.25 13.2217C25.25 13.6125 24.9332 13.9292 24.5425 13.9292H21.2406C20.8498 13.9292 20.533 13.6125 20.533 13.2217ZM7.12634 18.39C7.3981 18.6708 7.39079 19.1187 7.11 19.3905L4.86759 21.5608C4.5868 21.8326 4.13887 21.8253 3.8671 21.5445C3.59534 21.2637 3.60265 20.8158 3.88344 20.544L6.12585 18.3737C6.40664 18.1019 6.85458 18.1092 7.12634 18.39ZM18.39 18.3737C18.6708 18.1019 19.1187 18.1092 19.3905 18.39L21.5608 20.6324C21.8326 20.9132 21.8253 21.3611 21.5445 21.6329C21.2637 21.9046 20.8158 21.8973 20.544 21.6165L18.3737 19.3742C18.1019 19.0934 18.1092 18.6454 18.39 18.3737ZM13.2217 20.533C13.6125 20.533 13.9292 20.8498 13.9292 21.2406V24.5425C13.9292 24.9332 13.6125 25.25 13.2217 25.25C12.8309 25.25 12.5142 24.9332 12.5142 24.5425V21.2406C12.5142 20.8498 12.8309 20.533 13.2217 20.533Z" fill="white"/>
</svg>
