<svg width="42" height="44" viewBox="0 0 42 44" fill="none" xmlns="http://www.w3.org/2000/svg">
<path d="M14 43L12.9414 43.2989L15.0638 43.2799L14 43ZM17.9228 1.5V0.4H16.4907L16.86 1.78368L17.9228 1.5ZM40.5 1.5L41.5601 1.79375L41.9463 0.4H40.5V1.5ZM29 43L27.9372 43.2837L30.0601 43.2937L29 43ZM0.941389 0.798902L12.9414 43.2989L15.0586 42.7011L3.05861 0.201098L0.941389 0.798902ZM17.9228 2.6H40.5V0.4H17.9228V2.6ZM39.4399 1.20625L27.9399 42.7063L30.0601 43.2937L41.5601 1.79375L39.4399 1.20625ZM16.86 1.78368L27.9372 43.2837L30.0628 42.7163L18.9856 1.21632L16.86 1.78368ZM15.0638 43.2799L22.5638 14.7799L20.4362 14.2201L12.9362 42.7201L15.0638 43.2799Z" fill="white"/>
</svg>
